<svg height='100px' width='100px'  fill="#FFFFFF" xmlns="http://www.w3.org/2000/svg" viewBox="0 0 100 100" x="0px" y="0px"><title>•SET17-Abstract-Concepts-Flat-v1</title><path d="M85.448,28.552,50.85,8.576a1.7,1.7,0,0,0-1.7,0l-34.6,19.976a1.7,1.7,0,0,0-.851,1.472V69.976a1.7,1.7,0,0,0,.851,1.472l34.6,19.976a1.7,1.7,0,0,0,1.7,0l34.6-19.976a1.7,1.7,0,0,0,.851-1.472V30.024A1.7,1.7,0,0,0,85.448,28.552Zm-37.4,58.31L17.1,68.994V32.859l13.482,7.785V52.63a4.109,4.109,0,0,0-3.162.457,4.62,4.62,0,0,0-1.889,4.305A11.161,11.161,0,0,0,31,65.987a5.639,5.639,0,0,0,2.607.7A3.852,3.852,0,0,0,35.7,66.1a4.619,4.619,0,0,0,1.889-4.3,10.43,10.43,0,0,0-1.7-4.957,11.56,11.56,0,0,0-1.911-2.285V42.607l14.064,8.119Zm-15.023-28.2h0a7.1,7.1,0,0,1,1.17,3.294c.034.718-.135,1.157-.319,1.274s-.652.084-1.289-.251a7.818,7.818,0,0,1-3.659-5.749c-.034-.718.135-1.158.319-1.274a.515.515,0,0,1,.274-.061,2.308,2.308,0,0,1,1.015.312A7.1,7.1,0,0,1,33.025,58.661ZM50.037,47.949,35.362,39.477l10.566-6.1a11.042,11.042,0,0,0,4.252.8c4.453,0,7.811-2.252,7.811-5.238S54.633,23.7,50.18,23.7s-7.811,2.252-7.811,5.238a3.969,3.969,0,0,0,.667,2.182L31.962,37.514,18.9,29.97,50,12.011l31.141,17.98ZM45.77,28.938c0-.648,1.673-1.838,4.41-1.838s4.411,1.19,4.411,1.838-1.675,1.837-4.411,1.837S45.77,29.585,45.77,28.938ZM66.847,62.979c-.637.334-1.109.366-1.289.251s-.354-.556-.32-1.274a7.112,7.112,0,0,1,1.17-3.294h0A7.109,7.109,0,0,1,68.9,56.207a2.312,2.312,0,0,1,1.015-.312.521.521,0,0,1,.275.061c.183.116.353.556.319,1.274a7.825,7.825,0,0,1-3.659,5.749ZM82.9,68.994,69.707,76.61V65.132a11.21,11.21,0,0,0,2.5-2.782,10.41,10.41,0,0,0,1.7-4.958A4.221,4.221,0,0,0,67.312,53.2a11.163,11.163,0,0,0-5.469,8.594A4.619,4.619,0,0,0,63.731,66.1a3.856,3.856,0,0,0,2.093.589,4.684,4.684,0,0,0,.483-.033V78.4c0,.055.011.107.016.16L51.448,87.153V51.06L82.9,32.9Z"></path></svg>